# AST/ASF file generated using VICON BodyLanguage
# -----------------------------------------------
:version 1.10
:name VICON
:units
  mass 1.0
  length 0.45
  angle deg
:documentation
   .ast/.asf automatically generated from VICON data using
   VICON BodyBuilder and BodyLanguage model FoxedUp or BRILLIANT.MOD
:root
   order TX TY TZ RX RY RZ
   axis XYZ
   position 0 0 0  
   orientation 0 0 0 
:bonedata
  begin
     id 1 
     name lhipjoint
     direction 0.630082 -0.636569 0.44472 
     length 2.82754 
     axis 0 0 0  XYZ
  end
  begin
     id 2 
     name lfemur
     direction 0.34202 -0.939693 0  
     length 7.26371  
     axis 0 0 20  XYZ
    dof rx ry rz
    limits (-160.0 20.0)
           (-70.0 70.0)
           (-60.0 70.0)
  end
  begin
     id 3 
     name ltibia
     direction 0.34202 -0.939693 0   
     length 7.88616   
     axis 0 0 20   XYZ
    dof rx
    limits (-10.0 170.0)
  end
  begin
     id 4 
     name lfoot
     direction 0.0603448 -0.165796 0.984312   
     length 1.77861   
     axis -90 7.62852e-016 20   XYZ
    dof rx rz
    limits (-45.0 90.0)
           (-70.0 20.0)
  end
  begin
     id 5 
     name ltoes
     direction 1.53577e-011 -4.21876e-011 1   
     length 0.902235   
     axis -90 7.62852e-016 20   XYZ
    dof rx
    limits (-90.0 20.0)
  end
  begin
     id 6 
     name rhipjoint
     direction -0.656778 -0.61817 0.431866   
     length 2.9117  
     axis 0 0 0  XYZ 
  end
  begin
     id 7 
     name rfemur
     direction -0.34202 -0.939693 0   
     length 6.81603   
     axis 0 0 -20   XYZ
    dof rx ry rz
    limits (-160.0 20.0)
           (-70.0 70.0)
           (-70.0 60.0)
  end
  begin
     id 8 
     name rtibia
     direction -0.34202 -0.939693 0   
     length 8.05997   
     axis 0 0 -20   XYZ
    dof rx
    limits (-10.0 170.0)
 end
 begin
     id 9 
     name rfoot
     direction -0.0862404 -0.236944 0.967688   
     length 1.84899  
     axis -90 -7.62852e-016 -20   XYZ
    dof rx rz
    limits (-45.0 90.0)
           (-20.0 70.0)
  end
  begin
     id 10 
     name rtoes
     direction -1.53561e-011 -4.21798e-011 1   
     length 0.931579   
     axis -90 -7.62852e-016 -20   XYZ
    dof rx
    limits (-90.0 20.0)
  end
  begin
     id 11 
     name lowerback
     direction -0.0110203 0.991769 -0.127564   
     length 2.05686   
     axis 0 0 0   XYZ
    dof rx ry rz
    limits (-20.0 45.0)
           (-30.0 30.0)
           (-30.0 30.0)
  end
  begin
     id 12 
     name upperback
     direction 0.0109719 0.99993 -0.00432479   
     length 2.06234   
     axis 0 0 0   XYZ
    dof rx ry rz
    limits (-20.0 45.0)
           (-30.0 30.0)
           (-30.0 30.0)
  end
  begin
     id 13 
     name thorax
     direction 0.0173308 0.998351 0.0547306   
     length 2.09856   
     axis 0 0 0   XYZ
    dof rx ry rz
    limits (-20.0 45.0)
           (-30.0 30.0)
           (-30.0 30.0)
  end
  begin
     id 14 
     name lowerneck
     direction -0.0311736 0.989033 0.144366   
     length 1.98151   
     axis 0 0 0   XYZ
    dof rx ry rz
    limits (-20.0 45.0)
           (-30.0 30.0)
           (-30.0 30.0)
  end
  begin
     id 15 
     name upperneck
     direction 0.0421057 0.975772 -0.214698   
     length 2.01457   
     axis 0 0 0   XYZ
    dof rx ry rz
    limits (-20.0 45.0)
           (-30.0 30.0)
           (-30.0 30.0)
  end
  begin
     id 16
     name head
     direction 0.0136911 0.995958 -0.0887718  
     length 2.03562  
     axis 0 0 0   XYZ
    dof rx ry rz
    limits (-20.0 45.0)
           (-30.0 30.0)
           (-30.0 30.0)
  end
  begin
     id 17 
     name lclavicle
     direction 0.915335 0.396201 0.0720134  
     length 4.16217  
     axis 0 0 0   XYZ
    dof ry rz
    limits (-20.0 10.0)
           (0.0 20.0)
  end
  begin
     id 18 
     name lhumerus
     direction 1 -4.48965e-011 6.383e-018   
     length 4.93042   
     axis -180 -30 -90   XYZ
    dof rx ry rz
    limits (-60.0 90.0)
           (-90.0 90.0)
           (-90.0 90.0)
  end
  begin
     id 19
     name lradius
     direction 1 -4.48972e-011 8.8689e-027   
     length 3.68177   
     axis -180 -30 -90   XYZ
    dof rx
    limits (-10.0 170.0)
  end
  begin
     id 20
     name lwrist
     direction 1 -4.48953e-011 1.17971e-026   
     length 1.84089   
     axis -7.69454e-015 90 90   XYZ
    dof ry
    limits (-180.0 0.0)
 end
  begin
     id 21 
     name lhand
     direction 1 -4.49027e-011 2.35802e-026   
     length 0.721479   
     axis -1.50533e-014 90 90   XYZ
    dof rx rz
    limits (-90.0 90.0)
           (-45.0 45.0)
  end
  begin
     id 22 
     name lfingers
     direction 1 -4.48915e-011 4.72027e-026   
     length 0.581675   
     axis -3.01059e-014 90 90   XYZ
    dof rx
    limits (0.0 90.0)
  end
  begin
     id 23
     name lthumb
     direction 0.707107 -6.34948e-011 0.707107   
     length 0.835172   
     axis -90 45 -5.12164e-014   XYZ
    dof rx rz
    limits (-45.0 45.0)
           (-45.0 45.0)
  end
  begin
     id 24 
     name rclavicle
     direction -0.882781 0.469197 0.0234974   
     length 3.95647  
     axis 0 0 0   XYZ 
    dof ry rz
    limits (-10.0 20.0)
           (-20.0 0.0)
  end
  begin
     id 25 
     name rhumerus
     direction -1 -4.48965e-011 -1.54906e-018  
     length 5.07905   
     axis -180 30 90   XYZ
    dof rx ry rz
    limits (-90.0 60.0)
           (-90.0 90.0)
           (-90.0 90.0)
  end
  begin
     id 26 
     name rradius
     direction -1 -4.48972e-011 5.47489e-027   
     length 3.54394   
     axis -180 30 90   XYZ
    dof rx
    limits (-10.0 170.0)
  end
  begin
     id 27 
     name rwrist
     direction -1 -4.48955e-011 1.17969e-026   
     length 1.77197   
     axis -7.69454e-015 -90 -90   XYZ
    dof ry
    limits (-180.0 0.0)
  end
  begin
     id 28
     name rhand
     direction -1 -4.48982e-011 2.35888e-026   
     length 0.681156   
     axis -1.50533e-014 -90 -90   XYZ
    dof rx rz
    limits (-90.0 90.0)
           (-45.0 45.0)
  end
  begin
     id 29
     name rfingers
     direction -1 -4.48955e-011 4.71877e-026   
     length 0.549165   
     axis -3.01059e-014 -90 -90   XYZ
    dof rx
    limits (0.0 90.0)
  end
  begin
     id 30
     name rthumb
     direction -0.707107 -6.3491e-011 0.707107   
     length 0.788495   
     axis -90 -45 5.12164e-014   XYZ
    dof rx rz
    limits (-45.0 45.0)
           (-45.0 45.0)
  end
:hierarchy
  begin
    root lhipjoint rhipjoint lowerback
    lhipjoint lfemur
    lfemur ltibia
    ltibia lfoot
    lfoot ltoes
    rhipjoint rfemur
    rfemur rtibia
    rtibia rfoot
    rfoot rtoes
    lowerback upperback
    upperback thorax
    thorax lowerneck lclavicle rclavicle
    lowerneck upperneck
    upperneck head
    lclavicle lhumerus
    lhumerus lradius
    lradius lwrist
    lwrist lhand lthumb
    lhand lfingers
    rclavicle rhumerus
    rhumerus rradius
    rradius rwrist
    rwrist rhand rthumb
    rhand rfingers
  end

#!OML:ASF H:\Bending\Project 1\Capture day 1\Session 1\Subject.ASF
:FULLY-SPECIFIED
:DEGREES
63
root -9.04867 17.9446 -16.6361 46.7045 87.6783 42.6608
lowerback 7.26211 0.0297628 -1.13565
upperback -1.67168 -0.0138505 0.920065
thorax -5.81998 0.0505552 1.59922
lowerneck -24.0129 -3.3414 -5.69871
upperneck 35.2056 -2.5164 1.87305
head 16.9714 -1.27259 1.36995
rclavicle 5.66536e-015 -1.03368e-014
rhumerus -33.5345 -9.17868 -76.2663
rradius 25.9757
rwrist 23.2197
rhand -19.6037 -15.647
rfingers 7.12502
rthumb 6.72238 -45.5203
lclavicle 5.66536e-015 -1.03368e-014
lhumerus -35.6101 9.96019 86.2102
lradius 27.7885
lwrist 16.511
lhand -30.2848 10.1115
lfingers 7.12502
lthumb -3.59246 40.0609
rfemur 4.76322 -5.43156 9.89005
rtibia -4.77083e-015
rfoot -7.56721 -10.1551
rtoes -9.35174
lfemur -6.55118 -11.7655 -16.8237
ltibia 20.4535
lfoot -22.1978 14.0795
ltoes -33.17
64
root -9.07429 17.9477 -16.6698 46.8447 87.6111 42.6807
lowerback 7.64748 0.0321929 -1.07261
upperback -1.60251 -0.012258 0.844729
thorax -5.96679 0.0483389 1.4862
lowerneck -24.0864 -3.39168 -5.76153
upperneck 35.3018 -2.57935 1.93402
head 17.0458 -1.29725 1.39583
rclavicle -7.70291e-016 -1.23246e-014
rhumerus -33.0078 -8.81975 -76.6316
rradius 26.3708
rwrist 23.1112
rhand -19.7659 -15.934
rfingers 7.12502
rthumb 6.56581 -45.8122
lclavicle -7.70291e-016 -1.23246e-014
lhumerus -35.2053 8.31954 87.189
lradius 28.7551
lwrist 15.3342
lhand -30.4859 9.6521
lfingers 7.12502
lthumb -3.78668 39.5982
rfemur 4.47014 -5.4054 9.72145
rtibia 1.90833e-014
rfoot -7.30011 -10.135
rtoes -9.39638
lfemur -6.89624 -11.1765 -16.9058
ltibia 20.61
lfoot -21.9859 13.5691
ltoes -33.4864
65
root -9.1034 17.9517 -16.7061 44.4975 87.5147 40.156
lowerback 8.02134 0.0739512 -0.985055
upperback -1.52193 0.0463224 0.791662
thorax -6.09675 0.0735754 1.3749
lowerneck -24.1429 -3.43947 -5.80944
upperneck 35.2975 -2.64727 1.98254
head 17.0633 -1.32498 1.41056
rclavicle 2.03754e-015 -3.97569e-015
rhumerus -32.5023 -8.09873 -77.1295
rradius 26.9891
rwrist 22.5508
rhand -19.9219 -16.1784
rfingers 7.12502
rthumb 6.4152 -46.0613
lclavicle 2.03754e-015 -3.97569e-015
lhumerus -34.7502 6.59471 88.1772
lradius 29.7598
lwrist 14.3763
lhand -30.504 9.2213
lfingers 7.12502
lthumb -3.80421 39.1671
rfemur 4.06654 -5.29277 9.61735
rtibia -2.38542e-014
rfoot -6.99047 -10.1418
rtoes -9.27986
lfemur -7.29833 -10.5684 -16.9221
ltibia 20.7756
lfoot -21.8226 13.0743
ltoes -33.5027
66
root -9.13599 17.9559 -16.7452 41.4324 87.3706 36.8694
lowerback 8.39537 0.138637 -0.935323
upperback -1.43143 0.132946 0.750959
thorax -6.21695 0.114051 1.29331
lowerneck -24.1667 -3.47306 -5.83128
upperneck 35.1955 -2.70617 2.01482
head 17.02 -1.34898 1.41369
rclavicle 4.07509e-015 7.95139e-015
rhumerus -32.0239 -7.09135 -77.7114
rradius 27.7954
rwrist 21.6231
rhand -20.0755 -16.357
rfingers 7.12502
rthumb 6.2669 -46.2443
lclavicle 4.07509e-015 7.95139e-015
lhumerus -34.2633 4.85351 89.1464
lradius 30.8231
lwrist 13.8959
lhand -30.4197 8.90457
lfingers 7.12502
lthumb -3.72278 38.8518
rfemur 3.58139 -5.12892 9.52046
rtibia 1.74931e-014
rfoot -6.63176 -10.1872
rtoes -9.29005
lfemur -7.73223 -9.96216 -16.9329
ltibia 20.9124
lfoot -21.6776 12.6016
ltoes -33.2171
67
root -9.17158 17.9599 -16.7864 39.194 87.1764 34.3884
lowerback 8.79318 0.209489 -0.974098
upperback -1.33306 0.218364 0.711532
thorax -6.34239 0.157119 1.2622
lowerneck -24.153 -3.48869 -5.82298
upperneck 35.0171 -2.75031 2.02948
head 16.926 -1.36633 1.40571
rclavicle 1.14301e-015 -1.39149e-014
rhumerus -31.5598 -5.97695 -78.3014
rradius 28.7068
rwrist 20.5235
rhand -20.233 -16.4761
rfingers 7.12502
rthumb 6.1149 -46.3678
lclavicle 1.14301e-015 -1.39149e-014
lhumerus -33.7569 3.19835 90.0615
lradius 31.9407
lwrist 13.955
lhand -30.3424 8.7477
lfingers 7.12502
lthumb -3.64815 38.6962
rfemur 3.05546 -4.95188 9.37832
rtibia 0
rfoot -6.21473 -10.2674
rtoes -9.66789
lfemur -8.16533 -9.36276 -16.9949
ltibia 20.9897
lfoot -21.5176 12.1463
ltoes -32.723
